<svg preserveAspectRatio="none" overflow="visible" style="display: block;" width="47.9906" height="48.97" viewBox="0 0 47.9906 48.97" fill="none" xmlns="http://www.w3.org/2000/svg">
<g id="Group_1819064886.svg" clip-path="url(#clip0_0_9)">
<path id="Vector" d="M39.1522 42.1706C39.3108 42.3628 39.283 42.6471 39.091 42.8058C38.8989 42.9642 38.6146 42.9375 38.4559 42.7454L30.0297 32.5316H31.2004L39.1522 42.1706ZM19.2878 18.093H18.1181L8.67607 6.64826L9.37237 6.07439L19.2878 18.093Z" fill="white"/>
<path id="Vector_2" d="M30.0297 32.5316V32.3573H29.66L29.8952 32.6425L30.0297 32.5316ZM31.2004 32.5316L31.3348 32.4207L31.2825 32.3573H31.2004V32.5316ZM19.2878 18.093V18.2674H19.6576L19.4223 17.9822L19.2878 18.093ZM18.1181 18.093L17.9836 18.204L18.0359 18.2674H18.1181V18.093ZM8.67607 6.64826L8.56522 6.51374L8.43065 6.62465L8.54162 6.75917L8.67607 6.64826ZM9.37237 6.07439L9.50682 5.96346L9.39595 5.82908L9.26151 5.93987L9.37237 6.07439ZM39.1522 42.1706L39.0178 42.2816C39.1148 42.3991 39.0981 42.5737 38.98 42.6714L39.091 42.8058L39.202 42.9401C39.4678 42.7205 39.5067 42.3263 39.2867 42.0597L39.1522 42.1706ZM39.091 42.8058L38.98 42.6714C38.8618 42.7688 38.6875 42.7521 38.5903 42.6345L38.4559 42.7454L38.3215 42.8564C38.5415 43.1228 38.9359 43.1597 39.202 42.9401L39.091 42.8058ZM38.4559 42.7454L38.5903 42.6345L30.1641 32.4207L30.0297 32.5316L29.8952 32.6425L38.3215 42.8564L38.4559 42.7454ZM30.0297 32.5316V32.7059H31.2004V32.5316V32.3573H30.0297V32.5316ZM31.2004 32.5316L31.0659 32.6425L39.0178 42.2816L39.1522 42.1706L39.2867 42.0597L31.3348 32.4207L31.2004 32.5316ZM19.2878 18.093V17.9188H18.1181V18.093V18.2674H19.2878V18.093ZM18.1181 18.093L18.2526 17.9822L8.81053 6.53733L8.67607 6.64826L8.54162 6.75917L17.9836 18.204L18.1181 18.093ZM8.67607 6.64826L8.78693 6.78276L9.48322 6.20889L9.37237 6.07439L9.26151 5.93987L8.56522 6.51374L8.67607 6.64826ZM9.37237 6.07439L9.23792 6.1853L19.1533 18.204L19.2878 18.093L19.4223 17.9822L9.50682 5.96346L9.37237 6.07439Z" fill="white"/>
<path id="Vector_3" d="M23.914 48.1215C36.7603 48.1215 47.1744 37.7075 47.1744 24.8612C47.1744 12.0148 36.7603 1.60083 23.914 1.60083C11.0677 1.60083 0.653652 12.0148 0.653652 24.8612C0.653652 37.7075 11.0677 48.1215 23.914 48.1215Z" stroke="white" stroke-width="1.30752"/>
<path id="Vector_4" d="M32.2469 12.2702C34.4184 12.2702 36.195 14.0468 36.195 16.2183V19.5742C36.195 21.5975 35.356 23.4235 34.0729 24.756L34.0236 24.8054C33.3327 25.4962 32.4937 25.9897 31.6548 26.3352C31.2106 26.5326 30.7171 26.6807 30.1742 26.7793C28.9898 27.0262 27.756 27.4209 26.8677 28.2599C26.0287 29.1482 25.6339 30.382 25.3872 31.5665C25.2885 32.06 25.1404 32.6028 24.9431 33.0469C24.5975 33.8859 24.104 34.6756 23.4131 35.3664C23.3638 35.4158 23.3638 35.4158 23.3144 35.4652C22.0313 36.7483 20.2053 37.5379 18.2313 37.5379H14.8754C12.6546 37.5379 10.9274 35.8106 10.9274 33.5898V30.234C10.9274 29.2469 11.1248 28.3093 11.4702 27.4703C11.8157 26.582 12.3586 25.7924 13.0494 25.1014C13.7404 24.4106 14.53 23.8677 15.4183 23.5222C15.8625 23.3248 16.4053 23.1768 16.8989 23.0781C18.0832 22.8313 19.317 22.4365 20.2053 21.5975C21.0443 20.7092 21.4391 19.4755 21.6859 18.2911C21.7846 17.7482 21.9326 17.2547 22.13 16.8105C22.4755 15.9222 23.0183 15.1326 23.7092 14.4416C24.4002 13.7014 25.1898 13.2079 26.0781 12.8625C26.917 12.4677 27.8547 12.2702 28.8911 12.2702H32.2469ZM30.4703 18.5872C30.4703 19.13 30.9145 19.5742 31.4573 19.5742C31.9509 19.5742 32.395 19.13 32.395 18.5872C32.395 18.0936 31.9509 17.6495 31.4573 17.6495C30.9145 17.6495 30.4703 18.0936 30.4703 18.5872ZM30.4703 21.7456C30.4703 22.2885 30.9145 22.7327 31.4573 22.7327C31.9509 22.7327 32.395 22.2885 32.395 21.7456C32.395 21.2521 31.9509 20.8079 31.4573 20.8079C30.9145 20.8079 30.4703 21.2521 30.4703 21.7456ZM27.3118 21.7456C27.3118 22.2885 27.756 22.7327 28.2989 22.7327C28.7924 22.7327 29.2366 22.2885 29.2366 21.7456C29.2366 21.2521 28.7924 20.8079 28.2989 20.8079C27.756 20.8079 27.3118 21.2521 27.3118 21.7456ZM16.2573 32.8002C16.2573 33.3431 16.7014 33.7872 17.2443 33.7872C17.7378 33.7872 18.182 33.3431 18.182 32.8002C18.182 32.3067 17.7378 31.8625 17.2443 31.8625C16.7014 31.8625 16.2573 32.3067 16.2573 32.8002ZM20.4028 31.8625C19.8599 31.8625 19.4157 32.3067 19.4157 32.8002C19.4157 33.3431 19.8599 33.7872 20.4028 33.7872C20.8963 33.7872 21.3404 33.3431 21.3404 32.8002C21.3404 32.3067 20.8963 31.8625 20.4028 31.8625ZM20.4028 28.7041C19.8599 28.7041 19.4157 29.1482 19.4157 29.6417C19.4157 30.1846 19.8599 30.6288 20.4028 30.6288C20.8963 30.6288 21.3404 30.1846 21.3404 29.6417C21.3404 29.1482 20.8963 28.7041 20.4028 28.7041Z" fill="white"/>
</g>
<defs>
<clipPath id="clip0_0_9">
<rect width="47.9906" height="48.97" fill="white"/>
</clipPath>
</defs>
</svg>
