<svg preserveAspectRatio="none" overflow="visible" style="display: block;" width="172.85" height="172.85" viewBox="0 0 172.85 172.85" fill="none" xmlns="http://www.w3.org/2000/svg">
<g id="SVG">
<path id="Vector" d="M14.4008 68.4194C14.401 60.405 16.8322 52.579 21.3734 45.9753C25.9146 39.3716 32.3521 34.3007 39.8357 31.4324C47.3194 28.5641 55.497 28.0334 63.2886 29.9102C71.0802 31.7871 78.1192 35.9833 83.4759 41.9446C83.8532 42.348 84.3094 42.6696 84.8161 42.8895C85.3228 43.1094 85.8692 43.2228 86.4216 43.2228C86.9739 43.2228 87.5204 43.1094 88.0271 42.8895C88.5338 42.6696 88.9899 42.348 89.3672 41.9446C94.7071 35.9445 101.748 31.7131 109.552 29.8134C117.356 27.9138 125.554 28.436 133.054 31.3106C140.554 34.1852 147.001 39.2759 151.536 45.905C156.072 52.5342 158.481 60.3874 158.442 68.4194C158.442 84.9122 147.639 97.2277 136.836 108.031L97.2823 146.295C95.9403 147.837 94.2857 149.075 92.4284 149.927C90.5712 150.78 88.5537 151.228 86.5101 151.241C84.4665 151.254 82.4435 150.832 80.5756 150.003C78.7076 149.174 77.0375 147.956 75.6761 146.432L36.0071 108.031C25.2039 97.2277 14.4008 84.9842 14.4008 68.4194Z" stroke="#47773C" stroke-width="10.8031" stroke-linecap="round" stroke-linejoin="round"/>
</g>
</svg>
