<svg preserveAspectRatio="none" overflow="visible" style="display: block;" width="20.1667" height="14.6667" viewBox="0 0 20.1667 14.6667" fill="none" xmlns="http://www.w3.org/2000/svg">
<path id="Icon" d="M4.58333 14.6667C3.81944 14.6667 3.17014 14.3993 2.63542 13.8646C2.10069 13.3299 1.83333 12.6806 1.83333 11.9167H0V1.83333C0 1.32917 0.179514 0.897569 0.538542 0.538542C0.897569 0.179514 1.32917 0 1.83333 0H14.6667V3.66667H17.4167L20.1667 7.33333V11.9167H18.3333C18.3333 12.6806 18.066 13.3299 17.5312 13.8646C16.9965 14.3993 16.3472 14.6667 15.5833 14.6667C14.8194 14.6667 14.1701 14.3993 13.6354 13.8646C13.1007 13.3299 12.8333 12.6806 12.8333 11.9167H7.33333C7.33333 12.6806 7.06597 13.3299 6.53125 13.8646C5.99653 14.3993 5.34722 14.6667 4.58333 14.6667V14.6667M4.58333 12.8333C4.84306 12.8333 5.06076 12.7455 5.23646 12.5698C5.41215 12.3941 5.5 12.1764 5.5 11.9167C5.5 11.6569 5.41215 11.4392 5.23646 11.2635C5.06076 11.0878 4.84306 11 4.58333 11C4.32361 11 4.1059 11.0878 3.93021 11.2635C3.75451 11.4392 3.66667 11.6569 3.66667 11.9167C3.66667 12.1764 3.75451 12.3941 3.93021 12.5698C4.1059 12.7455 4.32361 12.8333 4.58333 12.8333V12.8333M1.83333 10.0833H2.56667C2.82639 9.80833 3.12431 9.58681 3.46042 9.41875C3.79653 9.25069 4.17083 9.16667 4.58333 9.16667C4.99583 9.16667 5.37014 9.25069 5.70625 9.41875C6.04236 9.58681 6.34028 9.80833 6.6 10.0833H12.8333V1.83333H1.83333V1.83333V1.83333V10.0833V10.0833M15.5833 12.8333C15.8431 12.8333 16.0608 12.7455 16.2365 12.5698C16.4122 12.3941 16.5 12.1764 16.5 11.9167C16.5 11.6569 16.4122 11.4392 16.2365 11.2635C16.0608 11.0878 15.8431 11 15.5833 11C15.3236 11 15.1059 11.0878 14.9302 11.2635C14.7545 11.4392 14.6667 11.6569 14.6667 11.9167C14.6667 12.1764 14.7545 12.3941 14.9302 12.5698C15.1059 12.7455 15.3236 12.8333 15.5833 12.8333V12.8333M14.6667 8.25H18.5625L16.5 5.5H14.6667V8.25V8.25M7.33333 5.95833V5.95833V5.95833V5.95833V5.95833V5.95833V5.95833V5.95833V5.95833V5.95833V5.95833V5.95833V5.95833" fill="#9D4317"/>
</svg>
